<svg xmlns="http://www.w3.org/2000/svg" xmlns:xlink="http://www.w3.org/1999/xlink" width="1920" height="1194" viewBox="0 0 1920 1194">
  <defs>
    <style>
      .cls-1 {
        clip-path: url(#clip-CV);
      }

      .cls-2 {
        fill: #06f;
      }

      .cls-10, .cls-2, .cls-4, .cls-5, .cls-6, .cls-7, .cls-8 {
        stroke: #707070;
      }

      .cls-10, .cls-12, .cls-15, .cls-3 {
        fill: #fff;
      }

      .cls-3 {
        stroke: rgba(112,112,112,0.19);
      }

      .cls-4 {
        fill: #707070;
      }

      .cls-11, .cls-14, .cls-5, .cls-6, .cls-7 {
        fill: none;
      }

      .cls-5 {
        stroke-width: 12px;
      }

      .cls-6 {
        stroke-width: 4px;
      }

      .cls-7 {
        stroke-width: 5px;
      }

      .cls-8 {
        fill: #929292;
      }

      .cls-9 {
        fill: url(#linear-gradient);
      }

      .cls-11 {
        stroke: #fff;
        stroke-width: 10px;
      }

      .cls-12 {
        font-size: 80px;
        font-family: SegoeUI-Bold, Segoe UI;
        font-weight: 700;
      }

      .cls-13 {
        stroke: none;
      }

      .cls-16 {
        filter: url(#Rectangle_278);
      }

      .cls-17 {
        filter: url(#Rectangle_276);
      }

      .cls-18 {
        filter: url(#Path_362);
      }
    </style>
    <filter id="Path_362" x="-512.781" y="49.077" width="1619.753" height="1103.427" filterUnits="userSpaceOnUse">
      <feOffset dy="3" input="SourceAlpha"/>
      <feGaussianBlur stdDeviation="3" result="blur"/>
      <feFlood flood-opacity="0.161"/>
      <feComposite operator="in" in2="blur"/>
      <feComposite in="SourceGraphic"/>
    </filter>
    <filter id="Rectangle_276" x="360.5" y="139.5" width="537" height="616" filterUnits="userSpaceOnUse">
      <feOffset dx="-7" dy="6" input="SourceAlpha"/>
      <feGaussianBlur stdDeviation="7.5" result="blur-2"/>
      <feFlood flood-color="#fff" flood-opacity="0.161"/>
      <feComposite operator="in" in2="blur-2"/>
      <feComposite in="SourceGraphic"/>
    </filter>
    <linearGradient id="linear-gradient" x1="0.5" x2="0.5" y2="1" gradientUnits="objectBoundingBox">
      <stop offset="0" stop-color="#3affa3"/>
      <stop offset="1" stop-color="#00c0ce"/>
    </linearGradient>
    <filter id="Rectangle_278" x="469.5" y="91.5" width="537" height="616" filterUnits="userSpaceOnUse">
      <feOffset dx="-7" dy="6" input="SourceAlpha"/>
      <feGaussianBlur stdDeviation="7.5" result="blur-3"/>
      <feFlood flood-opacity="0.161"/>
      <feComposite operator="in" in2="blur-3"/>
      <feComposite in="SourceGraphic"/>
    </filter>
    <clipPath id="clip-CV">
      <rect width="1920" height="1194"/>
    </clipPath>
  </defs>
  <g id="CV" class="cls-1">
    <rect class="cls-15" width="1920" height="1194"/>
    <g class="cls-18" transform="matrix(1, 0, 0, 1, 0, 0)">
      <path id="Path_362-2" data-name="Path 362" class="cls-2" d="M2924.7,2274.969c-639.394,72.727-475.984,360.271-469.7,369.7,465.911,892.753,641.052,223.891,858.576,128.727,127.9-55.956,477.11-63.934,636.842-172.708,112.214-76.415,131.315-202.259-83.782-428.867C3442.394,1802.12,3491.839,2210.46,2924.7,2274.969Z" transform="translate(-2935 -1963.27)"/>
    </g>
    <g class="cls-17" transform="matrix(1, 0, 0, 1, 0, 0)">
      <g id="Rectangle_276-2" data-name="Rectangle 276" class="cls-3" transform="translate(390 156)">
        <rect class="cls-13" width="492" height="571" rx="20"/>
        <rect class="cls-14" x="0.5" y="0.5" width="491" height="570" rx="19.5"/>
      </g>
    </g>
    <g id="Ellipse_42" data-name="Ellipse 42" class="cls-4" transform="translate(436 204)">
      <ellipse class="cls-13" cx="45.5" cy="46" rx="45.5" ry="46"/>
      <ellipse class="cls-14" cx="45.5" cy="46" rx="45" ry="45.5"/>
    </g>
    <line id="Line_49" data-name="Line 49" class="cls-5" x2="85" transform="translate(620.5 218.5)"/>
    <line id="Line_50" data-name="Line 50" class="cls-6" y1="3" x2="252" transform="translate(537.5 357.5)"/>
    <line id="Line_51" data-name="Line 51" class="cls-6" y1="3" x2="336" transform="translate(453.5 376.5)"/>
    <line id="Line_52" data-name="Line 52" class="cls-6" y1="3" x2="336" transform="translate(452.5 409.5)"/>
    <line id="Line_53" data-name="Line 53" class="cls-7" y1="3" x2="336" transform="translate(452.5 442.5)"/>
    <line id="Line_54" data-name="Line 54" class="cls-7" y1="3" x2="336" transform="translate(452.5 475.5)"/>
    <g id="Rectangle_277" data-name="Rectangle 277" class="cls-8" transform="translate(453 522)">
      <rect class="cls-13" width="125" height="115" rx="15"/>
      <rect class="cls-14" x="0.5" y="0.5" width="124" height="114" rx="14.5"/>
    </g>
    <line id="Line_55" data-name="Line 55" class="cls-7" y1="3" x2="168" transform="translate(620.5 551.5)"/>
    <line id="Line_56" data-name="Line 56" class="cls-7" y1="3" x2="168" transform="translate(620.5 584.5)"/>
    <line id="Line_57" data-name="Line 57" class="cls-7" y1="3" x2="168" transform="translate(620.5 617.5)"/>
    <g class="cls-16" transform="matrix(1, 0, 0, 1, 0, 0)">
      <rect id="Rectangle_278-2" data-name="Rectangle 278" class="cls-9" width="492" height="571" rx="20" transform="translate(499 108)"/>
    </g>
    <g id="Ellipse_43" data-name="Ellipse 43" class="cls-10" transform="translate(545 156)">
      <ellipse class="cls-13" cx="45.5" cy="46" rx="45.5" ry="46"/>
      <ellipse class="cls-14" cx="45.5" cy="46" rx="45" ry="45.5"/>
    </g>
    <line id="Line_58" data-name="Line 58" class="cls-11" y1="3" x2="252" transform="translate(646.5 295.5)"/>
    <line id="Line_59" data-name="Line 59" class="cls-11" y1="3" x2="336" transform="translate(562.5 328.5)"/>
    <line id="Line_60" data-name="Line 60" class="cls-11" y1="3" x2="336" transform="translate(561.5 361.5)"/>
    <line id="Line_61" data-name="Line 61" class="cls-11" y1="3" x2="336" transform="translate(561.5 394.5)"/>
    <line id="Line_62" data-name="Line 62" class="cls-11" y1="3" x2="336" transform="translate(561.5 426.5)"/>
    <g id="Rectangle_279" data-name="Rectangle 279" class="cls-10" transform="translate(562 474)">
      <rect class="cls-13" width="125" height="115" rx="15"/>
      <rect class="cls-14" x="0.5" y="0.5" width="124" height="114" rx="14.5"/>
    </g>
    <line id="Line_63" data-name="Line 63" class="cls-11" y1="3" x2="168" transform="translate(729.5 489.5)"/>
    <line id="Line_64" data-name="Line 64" class="cls-11" y1="3" x2="168" transform="translate(729.5 522.5)"/>
    <line id="Line_65" data-name="Line 65" class="cls-11" y1="3" x2="168" transform="translate(729.5 555.5)"/>
    <text id="CV-2" data-name="CV" class="cls-12" transform="translate(776 235)"><tspan x="-51.641" y="0">CV</tspan></text>
  </g>
</svg>
