<svg xmlns="http://www.w3.org/2000/svg" xmlns:xlink="http://www.w3.org/1999/xlink" width="1920" height="1187" viewBox="0 0 1920 1187">
  <defs>
    <style>
      .cls-1 {
        clip-path: url(#clip-FOOTER-BG_DARK);
      }

      .cls-2 {
        fill: url(#linear-gradient);
      }

      .cls-10, .cls-3, .cls-4, .cls-5, .cls-6, .cls-8 {
        fill: none;
      }

      .cls-3 {
        stroke: #ffd54d;
      }

      .cls-3, .cls-6 {
        stroke-width: 5px;
      }

      .cls-4 {
        stroke: #ff9100;
      }

      .cls-4, .cls-8 {
        stroke-width: 3px;
      }

      .cls-6 {
        stroke: #03a9ff;
      }

      .cls-7 {
        fill: rgba(255,255,255,0.66);
      }

      .cls-8 {
        stroke: #fff;
      }

      .cls-11, .cls-9 {
        stroke: none;
      }

      .cls-11 {
        fill: #ff1a00;
      }

      .cls-12 {
        fill: #f5f4f4;
      }

      .cls-13 {
        filter: url(#Ellipse_22);
      }

      .cls-14 {
        filter: url(#Ellipse_20);
      }

      .cls-15 {
        filter: url(#Path_316);
      }

      .cls-16 {
        filter: url(#Ellipse_18);
      }

      .cls-17 {
        filter: url(#Ellipse_17);
      }

      .cls-18 {
        filter: url(#Ellipse_16);
      }
    </style>
    <linearGradient id="linear-gradient" x1="0.322" y1="-0.734" x2="0.5" y2="1" gradientUnits="objectBoundingBox">
      <stop offset="0" stop-color="#5409eb"/>
      <stop offset="1" stop-color="#b010ff"/>
    </linearGradient>
    <filter id="Ellipse_16" x="-492.5" y="393.5" width="2899" height="1551" filterUnits="userSpaceOnUse">
      <feOffset dx="-3" dy="-22" input="SourceAlpha"/>
      <feGaussianBlur stdDeviation="8.5" result="blur"/>
      <feFlood flood-opacity="0.161"/>
      <feComposite operator="in" in2="blur"/>
      <feComposite in="SourceGraphic"/>
    </filter>
    <filter id="Ellipse_17" x="1756" y="361" width="78" height="78" filterUnits="userSpaceOnUse">
      <feOffset dy="3" input="SourceAlpha"/>
      <feGaussianBlur stdDeviation="3" result="blur-2"/>
      <feFlood flood-opacity="0.161"/>
      <feComposite operator="in" in2="blur-2"/>
      <feComposite in="SourceGraphic"/>
    </filter>
    <filter id="Ellipse_18" x="1493" y="478" width="70" height="70" filterUnits="userSpaceOnUse">
      <feOffset dy="3" input="SourceAlpha"/>
      <feGaussianBlur stdDeviation="3" result="blur-3"/>
      <feFlood flood-opacity="0.161"/>
      <feComposite operator="in" in2="blur-3"/>
      <feComposite in="SourceGraphic"/>
    </filter>
    <filter id="Path_316" x="89" y="189" width="158" height="158" filterUnits="userSpaceOnUse">
      <feOffset dy="3" input="SourceAlpha"/>
      <feGaussianBlur stdDeviation="3" result="blur-4"/>
      <feFlood flood-opacity="0.161"/>
      <feComposite operator="in" in2="blur-4"/>
      <feComposite in="SourceGraphic"/>
    </filter>
    <filter id="Ellipse_20" x="227" y="421" width="83" height="83" filterUnits="userSpaceOnUse">
      <feOffset dy="3" input="SourceAlpha"/>
      <feGaussianBlur stdDeviation="3" result="blur-5"/>
      <feFlood flood-opacity="0.161"/>
      <feComposite operator="in" in2="blur-5"/>
      <feComposite in="SourceGraphic"/>
    </filter>
    <filter id="Ellipse_22" x="1435.15" y="762.76" width="63" height="63" filterUnits="userSpaceOnUse">
      <feOffset dy="3" input="SourceAlpha"/>
      <feGaussianBlur stdDeviation="3" result="blur-6"/>
      <feFlood flood-opacity="0.161"/>
      <feComposite operator="in" in2="blur-6"/>
      <feComposite in="SourceGraphic"/>
    </filter>
    <clipPath id="clip-FOOTER-BG_DARK">
      <rect width="1920" height="1187"/>
    </clipPath>
  </defs>
  <g id="FOOTER-BG_DARK" data-name="FOOTER-BG – DARK" class="cls-1">
    <rect class="cls-12" width="1920" height="1187"/>
    <g id="Group_275" data-name="Group 275" transform="translate(0 657)">
      <g class="cls-18" transform="matrix(1, 0, 0, 1, 0, -657)">
        <ellipse id="Ellipse_16-2" data-name="Ellipse 16" class="cls-2" cx="1424" cy="750" rx="1424" ry="750" transform="translate(-464 441)"/>
      </g>
      <g class="cls-17" transform="matrix(1, 0, 0, 1, 0, -657)">
        <g id="Ellipse_17-2" data-name="Ellipse 17" class="cls-3" transform="translate(1765 367)">
          <circle class="cls-9" cx="30" cy="30" r="30"/>
          <circle class="cls-10" cx="30" cy="30" r="27.5"/>
        </g>
      </g>
      <g class="cls-16" transform="matrix(1, 0, 0, 1, 0, -657)">
        <g id="Ellipse_18-2" data-name="Ellipse 18" class="cls-4" transform="translate(1502 484)">
          <circle class="cls-9" cx="26" cy="26" r="26"/>
          <circle class="cls-10" cx="26" cy="26" r="24.5"/>
        </g>
      </g>
      <g class="cls-15" transform="matrix(1, 0, 0, 1, 0, -657)">
        <g id="Path_316-2" data-name="Path 316" class="cls-5" transform="translate(98 195)">
          <path class="cls-9" d="M70,0A70,70,0,1,1,0,70,70,70,0,0,1,70,0Z"/>
          <path class="cls-11" d="M 70 4 C 61.08829498291016 4 52.44527435302734 5.744476318359375 44.31104278564453 9.184951782226563 C 40.40114593505859 10.83871459960938 36.62973022460938 12.88581085205078 33.1015625 15.26939392089844 C 29.60589599609375 17.63101959228516 26.31858062744141 20.34331512451172 23.33095550537109 23.33095550537109 C 20.34331512451172 26.31858062744141 17.63101959228516 29.60589599609375 15.26939392089844 33.1015625 C 12.88581085205078 36.62973022460938 10.83871459960938 40.40114593505859 9.184951782226563 44.31104278564453 C 5.744476318359375 52.44527435302734 4 61.08829498291016 4 70 C 4 78.91171264648438 5.744476318359375 87.55470275878906 9.184951782226563 95.68893432617188 C 10.83871459960938 99.59885406494141 12.88581085205078 103.3702697753906 15.26939392089844 106.8984375 C 17.63101959228516 110.3941040039063 20.34331512451172 113.6814193725586 23.33095550537109 116.6690444946289 C 26.31858062744141 119.6566619873047 29.60589599609375 122.3689804077148 33.1015625 124.7306060791016 C 36.62973022460938 127.1141891479492 40.40114593505859 129.1612701416016 44.31104278564453 130.8150482177734 C 52.44528961181641 134.2555236816406 61.08829498291016 136 70 136 C 78.91171264648438 136 87.55470275878906 134.2555236816406 95.68893432617188 130.8150482177734 C 99.59885406494141 129.1612701416016 103.3702697753906 127.1141891479492 106.8984375 124.7306060791016 C 110.3941040039063 122.3689804077148 113.6814193725586 119.6566619873047 116.6690444946289 116.6690444946289 C 119.6566619873047 113.6814193725586 122.3689804077148 110.3941040039063 124.7306060791016 106.8984375 C 127.1141891479492 103.3702697753906 129.1612701416016 99.59885406494141 130.8150482177734 95.68893432617188 C 134.2555236816406 87.55470275878906 136 78.91171264648438 136 70 C 136 61.08829498291016 134.2555236816406 52.44528961181641 130.8150482177734 44.31104278564453 C 129.1612701416016 40.40114593505859 127.1141891479492 36.62973022460938 124.7306060791016 33.1015625 C 122.3689804077148 29.60589599609375 119.6566619873047 26.31858062744141 116.6690444946289 23.33095550537109 C 113.6814193725586 20.34331512451172 110.3941040039063 17.63101959228516 106.8984375 15.26939392089844 C 103.3702697753906 12.88581085205078 99.59885406494141 10.83871459960938 95.68893432617188 9.184951782226563 C 87.55470275878906 5.744476318359375 78.91171264648438 4 70 4 M 70 0 C 108.659912109375 0 140 31.34006500244141 140 70 C 140 108.659912109375 108.659912109375 140 70 140 C 31.34006500244141 140 0 108.659912109375 0 70 C 0 31.34006500244141 31.34006500244141 0 70 0 Z"/>
        </g>
      </g>
      <g class="cls-14" transform="matrix(1, 0, 0, 1, 0, -657)">
        <g id="Ellipse_20-2" data-name="Ellipse 20" class="cls-6" transform="translate(236 427)">
          <circle class="cls-9" cx="32.5" cy="32.5" r="32.5"/>
          <circle class="cls-10" cx="32.5" cy="32.5" r="30"/>
        </g>
      </g>
    </g>
    <circle id="Ellipse_21" data-name="Ellipse 21" class="cls-7" cx="40" cy="40" r="40" transform="translate(542 501)"/>
    <g class="cls-13" transform="matrix(1, 0, 0, 1, 0, 0)">
      <g id="Ellipse_22-2" data-name="Ellipse 22" class="cls-8" transform="translate(1444.15 768.76)">
        <circle class="cls-9" cx="22.5" cy="22.5" r="22.5"/>
        <circle class="cls-10" cx="22.5" cy="22.5" r="21"/>
      </g>
    </g>
  </g>
</svg>
