<svg xmlns="http://www.w3.org/2000/svg" xmlns:xlink="http://www.w3.org/1999/xlink" width="1920" height="1194" viewBox="0 0 1920 1194">
  <defs>
    <style>
      .cls-1 {
        clip-path: url(#clip-NOTES);
      }

      .cls-2 {
        fill: #06f;
      }

      .cls-2, .cls-5, .cls-6 {
        stroke: #707070;
      }

      .cls-10, .cls-13, .cls-3 {
        fill: #fff;
      }

      .cls-3, .cls-4 {
        stroke: rgba(112,112,112,0.19);
      }

      .cls-4 {
        fill: #928585;
      }

      .cls-12, .cls-5, .cls-6, .cls-8, .cls-9 {
        fill: none;
      }

      .cls-5 {
        stroke-width: 4px;
      }

      .cls-6, .cls-9 {
        stroke-width: 5px;
      }

      .cls-7 {
        fill: url(#linear-gradient);
      }

      .cls-8, .cls-9 {
        stroke: #fff;
      }

      .cls-8 {
        stroke-width: 10px;
      }

      .cls-10 {
        font-size: 80px;
        font-family: SegoeUI-Bold, Segoe UI;
        font-weight: 700;
      }

      .cls-11 {
        stroke: none;
      }

      .cls-14 {
        filter: url(#Rectangle_282);
      }

      .cls-15 {
        filter: url(#Rectangle_283);
      }

      .cls-16 {
        filter: url(#Rectangle_280);
      }

      .cls-17 {
        filter: url(#Path_362);
      }
    </style>
    <filter id="Path_362" x="-512.781" y="49.077" width="1619.753" height="1103.427" filterUnits="userSpaceOnUse">
      <feOffset dy="3" input="SourceAlpha"/>
      <feGaussianBlur stdDeviation="3" result="blur"/>
      <feFlood flood-opacity="0.161"/>
      <feComposite operator="in" in2="blur"/>
      <feComposite in="SourceGraphic"/>
    </filter>
    <filter id="Rectangle_280" x="308.5" y="133.5" width="537" height="616" filterUnits="userSpaceOnUse">
      <feOffset dx="-7" dy="6" input="SourceAlpha"/>
      <feGaussianBlur stdDeviation="7.5" result="blur-2"/>
      <feFlood flood-color="#fff" flood-opacity="0.161"/>
      <feComposite operator="in" in2="blur-2"/>
      <feComposite in="SourceGraphic"/>
    </filter>
    <filter id="Rectangle_283" x="359.5" y="198.5" width="457" height="506" filterUnits="userSpaceOnUse">
      <feOffset dx="-7" dy="6" input="SourceAlpha"/>
      <feGaussianBlur stdDeviation="7.5" result="blur-3"/>
      <feFlood flood-color="#fff" flood-opacity="0.161"/>
      <feComposite operator="in" in2="blur-3"/>
      <feComposite in="SourceGraphic"/>
    </filter>
    <linearGradient id="linear-gradient" x1="0.5" x2="0.5" y2="1" gradientUnits="objectBoundingBox">
      <stop offset="0" stop-color="#3affa3"/>
      <stop offset="1" stop-color="#00c0ce"/>
    </linearGradient>
    <filter id="Rectangle_282" x="400.5" y="88.5" width="537" height="616" filterUnits="userSpaceOnUse">
      <feOffset dx="-7" dy="6" input="SourceAlpha"/>
      <feGaussianBlur stdDeviation="7.5" result="blur-4"/>
      <feFlood flood-opacity="0.161"/>
      <feComposite operator="in" in2="blur-4"/>
      <feComposite in="SourceGraphic"/>
    </filter>
    <clipPath id="clip-NOTES">
      <rect width="1920" height="1194"/>
    </clipPath>
  </defs>
  <g id="NOTES" class="cls-1">
    <rect class="cls-13" width="1920" height="1194"/>
    <g class="cls-17" transform="matrix(1, 0, 0, 1, 0, 0)">
      <path id="Path_362-2" data-name="Path 362" class="cls-2" d="M2924.7,2274.969c-639.394,72.727-475.984,360.271-469.7,369.7,465.911,892.753,641.052,223.891,858.576,128.727,127.9-55.956,477.11-63.934,636.842-172.708,112.214-76.415,131.315-202.259-83.782-428.867C3442.394,1802.12,3491.839,2210.46,2924.7,2274.969Z" transform="translate(-2935 -1963.27)"/>
    </g>
    <g class="cls-16" transform="matrix(1, 0, 0, 1, 0, 0)">
      <g id="Rectangle_280-2" data-name="Rectangle 280" class="cls-3" transform="translate(338 150)">
        <rect class="cls-11" width="492" height="571" rx="20"/>
        <rect class="cls-12" x="0.5" y="0.5" width="491" height="570" rx="19.5"/>
      </g>
    </g>
    <g class="cls-15" transform="matrix(1, 0, 0, 1, 0, 0)">
      <g id="Rectangle_283-2" data-name="Rectangle 283" class="cls-4" transform="translate(389 215)">
        <rect class="cls-11" width="412" height="461" rx="12"/>
        <rect class="cls-12" x="0.5" y="0.5" width="411" height="460" rx="11.5"/>
      </g>
    </g>
    <line id="Line_68" data-name="Line 68" class="cls-5" y1="3" x2="252" transform="translate(485.5 351.5)"/>
    <line id="Line_73" data-name="Line 73" class="cls-6" y1="3" x2="168" transform="translate(568.5 545.5)"/>
    <line id="Line_74" data-name="Line 74" class="cls-6" y1="3" x2="168" transform="translate(568.5 578.5)"/>
    <g class="cls-14" transform="matrix(1, 0, 0, 1, 0, 0)">
      <rect id="Rectangle_282-2" data-name="Rectangle 282" class="cls-7" width="492" height="571" rx="20" transform="translate(430 105)"/>
    </g>
    <line id="Line_76" data-name="Line 76" class="cls-8" y1="3" x2="336" transform="translate(510.5 322.5)"/>
    <line id="Line_77" data-name="Line 77" class="cls-8" y1="3" x2="336" transform="translate(509.5 355.5)"/>
    <line id="Line_78" data-name="Line 78" class="cls-8" y1="3" x2="336" transform="translate(509.5 388.5)"/>
    <line id="Line_79" data-name="Line 79" class="cls-8" y1="3" x2="336" transform="translate(509.5 420.5)"/>
    <line id="Line_83" data-name="Line 83" class="cls-8" y1="3" x2="336" transform="translate(510.5 290.5)"/>
    <line id="Line_84" data-name="Line 84" class="cls-8" y1="3" x2="336" transform="translate(509.5 456.5)"/>
    <line id="Line_85" data-name="Line 85" class="cls-8" y1="3" x2="336" transform="translate(510.5 487.5)"/>
    <line id="Line_86" data-name="Line 86" class="cls-8" y1="3" x2="336" transform="translate(510.5 516.5)"/>
    <line id="Line_87" data-name="Line 87" class="cls-8" y1="3" x2="336" transform="translate(510.5 545.5)"/>
    <line id="Line_88" data-name="Line 88" class="cls-8" y1="3" x2="336" transform="translate(510.5 577.5)"/>
    <line id="Line_89" data-name="Line 89" class="cls-9" x2="386" transform="translate(483.5 260.5)"/>
    <text id="Notes-2" data-name="Notes" class="cls-10" transform="translate(676 224)"><tspan x="-110.703" y="0">Notes</tspan></text>
  </g>
</svg>
